<svg width="16" height="18" viewBox="0 0 16 18" fill="none" xmlns="http://www.w3.org/2000/svg">
<path d="M10.9474 13.7143C11.4189 13.7143 11.7895 14.0914 11.7895 14.5714C11.7895 15.0514 11.4189 15.4286 10.9474 15.4286C10.4758 15.4286 10.1053 15.0514 10.1053 14.5714C10.1053 14.0914 10.4758 13.7143 10.9474 13.7143ZM10.9474 11.1429C8.64842 11.1429 6.68632 12.5657 5.89474 14.5714C6.68632 16.5771 8.64842 18 10.9474 18C13.2463 18 15.2084 16.5771 16 14.5714C15.2084 12.5657 13.2463 11.1429 10.9474 11.1429ZM10.9474 16.7143C10.389 16.7143 9.85354 16.4885 9.45872 16.0867C9.06391 15.6848 8.8421 15.1397 8.8421 14.5714C8.8421 14.0031 9.06391 13.4581 9.45872 13.0562C9.85354 12.6543 10.389 12.4286 10.9474 12.4286C11.5057 12.4286 12.0412 12.6543 12.436 13.0562C12.8308 13.4581 13.0526 14.0031 13.0526 14.5714C13.0526 15.1397 12.8308 15.6848 12.436 16.0867C12.0412 16.4885 11.5057 16.7143 10.9474 16.7143ZM4.32842 15.2143L4.08421 14.5714L4.32842 13.9371C5.41474 11.1943 8 9.42857 10.9474 9.42857C11.8316 9.42857 12.6821 9.60857 13.4737 9.90857V5.14286L8.42105 0H1.68421C0.749474 0 0 0.762857 0 1.71429V15.4286C0 15.8832 0.177443 16.3193 0.493294 16.6408C0.809144 16.9622 1.23753 17.1429 1.68421 17.1429H5.47368C5.01053 16.5771 4.63158 15.9257 4.32842 15.2143ZM7.57895 1.28571L12.2105 6H7.57895V1.28571Z" fill="#00B074"/>
</svg>
